<svg xmlns="http://www.w3.org/2000/svg" fill="none" viewBox="0 0 24 24">
  <path stroke="#000" stroke-linecap="round" stroke-linejoin="round" stroke-width="2" d="m12.48 7.85-3.64 2.18c.18 1.48.5 2.94.96 4.36 1.17 3.27 2.8 4.59 4.7 5.61h4.6c.17-1.33.3-2.07-.1-3.59a12.88 12.88 0 0 0-3.17-5.66 22 22 0 0 0-3.35-2.9Z"/>
  <path stroke="#000" stroke-linecap="round" stroke-linejoin="round" stroke-width="2" d="M12.48 7.85 13.7 3s1.94 1.77 2.53 3.42c.65 1.83-.36 4.34-.36 4.34m-7.03-.73L4 8.8s.66 2.57 1.83 3.86c1.3 1.45 3.98 1.72 3.98 1.72M1 20h22"/>
</svg>