<svg xmlns="http://www.w3.org/2000/svg" fill="none" viewBox="0 0 180 180">
  <path fill="#fff" d="M152.44 32.56A147.57 147.57 0 0 0 115.32 21c-1.6 2.86-3.47 6.72-4.76 9.78a137.6 137.6 0 0 0-41.15 0c-1.28-3.06-3.2-6.92-4.8-9.78a147.08 147.08 0 0 0-37.16 11.59C3.95 67.76-2.42 102.06.76 135.87A148.97 148.97 0 0 0 46.3 159a112 112 0 0 0 9.75-15.92 96.25 96.25 0 0 1-15.36-7.4 76.08 76.08 0 0 0 3.77-2.95c29.61 13.72 61.78 13.72 91.04 0 1.23 1.02 2.5 2 3.77 2.95a95.98 95.98 0 0 1-15.39 7.42 111.55 111.55 0 0 0 9.75 15.91 148.68 148.68 0 0 0 45.57-23.13c3.73-39.2-6.39-73.18-26.76-103.31ZM60.1 115.08c-8.9 0-16.18-8.22-16.18-18.23S51.04 78.6 60.09 78.6c9.04 0 16.33 8.22 16.17 18.25.02 10-7.13 18.23-16.17 18.23Zm59.78 0c-8.88 0-16.17-8.22-16.17-18.23s7.13-18.25 16.17-18.25c9.05 0 16.34 8.22 16.18 18.25 0 10-7.13 18.23-16.18 18.23Z"/>
</svg>