<svg width="16" height="12" viewBox="0 0 16 12" fill="none" xmlns="http://www.w3.org/2000/svg">
<path d="M5.0957 10.9824C4.86523 10.9824 4.66211 10.8945 4.48633 10.7188L1.25781 7.51953C1.17578 7.44141 1.11133 7.34766 1.06445 7.23828C1.02148 7.125 1 7.00977 1 6.89258C1 6.7793 1.02148 6.66602 1.06445 6.55273C1.11133 6.43945 1.17578 6.34375 1.25781 6.26562L4.48633 3.07812C4.66211 2.89844 4.86523 2.80859 5.0957 2.80859C5.3418 2.80859 5.54102 2.88672 5.69336 3.04297C5.8457 3.19922 5.92188 3.39258 5.92188 3.62305C5.92188 3.75586 5.89648 3.87109 5.8457 3.96875C5.79492 4.0625 5.73047 4.14844 5.65234 4.22656L4.46875 5.375L3.57842 6.10759L4.90234 6.04883H11.8633C12.1328 6.04883 12.3281 5.98828 12.4492 5.86719C12.5703 5.74609 12.6309 5.54688 12.6309 5.26953V2.83203C12.6309 2.37251 13.0034 2 13.4629 2C13.9224 2 14.2949 2.37251 14.2949 2.83203V5.38086C14.2949 6.20508 14.1074 6.80469 13.7324 7.17969C13.3574 7.55469 12.7598 7.74219 11.9395 7.74219H4.90234L3.5829 7.68362L4.46875 8.41602L5.65234 9.57031C5.73047 9.64453 5.79492 9.73047 5.8457 9.82812C5.89648 9.92578 5.92188 10.0391 5.92188 10.168C5.92188 10.4023 5.8457 10.5957 5.69336 10.748C5.54102 10.9043 5.3418 10.9824 5.0957 10.9824Z" fill="#5eb663"/>
</svg>
