<svg xmlns="http://www.w3.org/2000/svg" width="2500" height="2500" viewBox="0 0 800 800">
  <circle cx="400" cy="400" r="400" fill="#ff4500"/>
  <path fill="#fff" d="M666.8 400a58.58 58.58 0 0 1-8.52 31.28 58.47 58.47 0 0 1-23.88 21.92c.11 1.46.2 2.93.25 4.4a107.27 107.27 0 0 1 0 8.8c-.05 1.47-.14 2.94-.25 4.4 0 89.6-104.4 162.4-233.2 162.4S168 560.4 168 470.8c-.11-1.46-.2-2.93-.25-4.4a107.27 107.27 0 0 1 0-8.8c.05-1.47.14-2.94.25-4.4a58.44 58.44 0 0 1-31.85-37.28 58.41 58.41 0 0 1 7.8-48.42 58.35 58.35 0 0 1 41.93-25.4 58.4 58.4 0 0 1 46.52 15.5 286.8 286.8 0 0 1 35.89-20.71 286.3 286.3 0 0 1 78.83-24.86 285.43 285.43 0 0 1 41.28-3.63L418 169.6a12.33 12.33 0 0 1 5.39-7.89 12.48 12.48 0 0 1 9.41-1.71l98 19.6a40 40 0 1 1-5.2 24.4L440 186l-26 124.8c13.66.29 27.29 1.57 40.77 3.82a284.36 284.36 0 0 1 77.8 24.86A284.41 284.41 0 0 1 568 360a58.34 58.34 0 0 1 29.4-15.21 58.36 58.36 0 0 1 32.95 3.21 58.38 58.38 0 0 1 25.91 20.61A58.38 58.38 0 0 1 666.8 400zm-396.96 55.31a40.05 40.05 0 0 0 21.65 21.65A40.05 40.05 0 0 0 306.8 480a40 40 0 1 0-36.96-24.69zm229.1 96.02a10.81 10.81 0 0 0-7.4-18.53 13.08 13.08 0 0 0-7.94 2.8 131.06 131.06 0 0 1-19.04 11.35 131.53 131.53 0 0 1-20.68 7.99A131.66 131.66 0 0 1 400 560c-7.38.33-14.78.03-22.11-.89a129.01 129.01 0 0 1-21.64-4.6 130.64 130.64 0 0 1-39.45-19.71 10.8 10.8 0 0 0-15.2 15.2 153.68 153.68 0 0 0 98.8 30.8c8.79.36 17.6-.03 26.33-1.17A153.96 153.96 0 0 0 476.87 564c7.83-4.02 15.3-8.7 22.33-14zm-7.34-68.13a40.09 40.09 0 0 0 29.13-12.13 39.97 39.97 0 0 0 8.66-13.58A39.88 39.88 0 0 0 532 441.6a40 40 0 1 0-40 40z"/>
</svg>